<svg width="78" height="93" viewBox="0 0 78 93" fill="none" xmlns="http://www.w3.org/2000/svg">
<path d="M32.1111 66.3968L33.381 74.0158L35.2857 78.4603L37.8254 82.2698L40.3651 85.4444L44 88.5L48.5 90.5L53.6984 92L59 92.5H64L68 92L71.6944 90L74.6508 86.7142L76.5556 82.2698V78L75 74.5L73 72.746L70 71.5H67L64 72L62 73.5L60.6825 75L59.5 78V80L60 82.2698L62 84.5L64.4921 86.7142H59.0696L53.6984 86.0793L47.3492 83.5397L42.9048 78.4603L39.7302 72.746L39.0952 66.3968L39.7302 60.0476L42.9048 53.6984L47.3492 49.2539L53.6984 46.0793L58.3254 56.2381L60.6825 58.7778L64.4921 60.0476H68.9365L74.0159 57.5079L76.5556 53.0635V49.5714V46.0793L74.6508 43L71 40.3651L68 39.7301H58.3254L41.6349 2.26984L39.0952 1L36.5556 2.26984L20.0476 39.7301H8.61905L4.1746 42.2698L1 47.3492V53.0635L4.1746 57.5079L8.61905 60.0476H13.6984L18.7778 57.5079L21.3175 53.0635L23 49.2539L24.5 45.4444H32.1111H35H39.0952L41.5 43.5L43.5397 42.2698L47.9841 40L32.1111 39.7301H27.0317L39.0952 13.6984L51.1587 41L47.9841 42.2698L43.5397 44.8095L37.8254 49.8889L33.381 57.5079L32.1111 66.3968Z" fill="#3AB5EF" stroke="black" stroke-linecap="round" stroke-linejoin="round"/>
</svg>
